<?xml version="1.0" standalone="no"?>
<!DOCTYPE svg PUBLIC "-//W3C//DTD SVG 20010904//EN"
 "http://www.w3.org/TR/2001/REC-SVG-20010904/DTD/svg10.dtd">
<svg version="1.0" xmlns="http://www.w3.org/2000/svg"
 width="512.000000pt" height="512.000000pt" viewBox="0 0 512.000000 512.000000"
 preserveAspectRatio="xMidYMid meet">
<metadata>
Created by potrace 1.11, written by Peter Selinger 2001-2013
</metadata>
<g transform="translate(0.000000,512.000000) scale(0.100000,-0.100000)"
fill="#000000" stroke="none">
<path d="M1910 4783 c-210 -26 -370 -125 -470 -289 -101 -166 -118 -411 -39
-558 11 -21 19 -40 16 -42 -2 -2 -23 14 -48 36 -54 48 -164 105 -244 125 -70
18 -211 21 -281 5 -259 -58 -457 -296 -469 -564 -10 -200 84 -400 241 -517 29
-21 57 -39 62 -39 5 0 15 -6 21 -14 9 -11 5 -12 -26 -7 -55 10 -145 4 -216
-14 -317 -81 -509 -393 -443 -716 43 -204 190 -369 401 -450 53 -20 141 -31
218 -27 l86 4 -41 -20 c-56 -29 -165 -131 -204 -192 -158 -247 -128 -556 75
-764 137 -140 359 -210 537 -170 27 7 57 13 66 15 72 15 237 122 285 185 20
26 357 488 373 510 44 64 120 163 121 157 0 -4 0 -36 1 -71 1 -163 66 -322
177 -433 l42 -43 -25 -127 c-14 -71 -27 -139 -29 -153 -15 -79 -20 -107 -24
-125 -2 -11 -7 -36 -10 -56 l-5 -36 63 -13 c35 -6 73 -14 84 -16 11 -2 31 -6
45 -9 14 -2 40 -7 59 -10 19 -3 38 -8 42 -10 4 -3 12 21 18 53 19 104 21 116
42 222 12 58 22 112 24 120 1 12 24 14 124 15 132 0 126 3 137 -62 2 -16 7
-39 9 -53 3 -14 7 -34 9 -45 38 -194 46 -237 46 -241 0 -7 69 2 155 20 39 7
87 17 108 20 27 5 37 12 37 25 0 10 -18 108 -39 217 -21 110 -41 212 -44 228
-4 24 5 40 55 100 104 124 157 265 158 420 l0 69 48 -64 c26 -35 101 -138 166
-229 304 -421 333 -453 455 -518 294 -156 654 -47 814 248 54 99 71 169 71
290 0 174 -57 307 -184 432 -37 36 -88 77 -113 90 l-46 23 102 -2 c178 -4 311
50 437 177 86 86 132 165 159 272 65 256 -30 510 -247 660 -98 67 -250 109
-372 101 -60 -4 -63 -3 -45 11 11 8 23 16 27 16 12 0 58 40 119 101 61 62 117
161 145 254 27 91 25 240 -4 335 -94 303 -398 484 -705 420 -104 -21 -223 -84
-291 -155 -21 -21 -28 -24 -22 -10 52 125 60 161 60 275 1 135 -20 217 -81
318 -161 265 -491 368 -771 241 -163 -74 -295 -233 -332 -402 -14 -60 -30 -85
-30 -45 0 13 -6 43 -14 68 -59 192 -209 345 -395 404 -72 23 -176 36 -231 29z"/>
</g>
</svg>
